<mxfile host="app.diagrams.net" modified="2021-09-18T03:21:54.445Z" agent="5.0 (Macintosh; Intel Mac OS X 10_15_7) AppleWebKit/537.36 (KHTML, like Gecko) Chrome/93.0.4577.82 Safari/537.36" etag="6NLH18oDVDdrtWb3wHM_" version="15.2.9" type="github">
  <diagram id="-tsS-FsJ0L8fD3Px-xXv" name="第 1 页">
    <mxGraphModel dx="2253" dy="1963" grid="1" gridSize="10" guides="1" tooltips="1" connect="1" arrows="1" fold="1" page="1" pageScale="1" pageWidth="827" pageHeight="1169" math="0" shadow="0">
      <root>
        <mxCell id="0" />
        <mxCell id="1" parent="0" />
        <mxCell id="Mv-XawTWSqNudMJ0L80r-18" value="业务 Feign Module" style="rounded=0;whiteSpace=wrap;html=1;fontSize=25;align=left;verticalAlign=top;fillColor=#d5e8d4;strokeColor=#82b366;gradientColor=#97d077;" parent="1" vertex="1">
          <mxGeometry x="840" y="-30" width="260" height="600" as="geometry" />
        </mxCell>
        <mxCell id="Mv-XawTWSqNudMJ0L80r-6" value="&lt;font style=&quot;font-size: 25px&quot;&gt;shebao-frame&lt;/font&gt;" style="rounded=0;whiteSpace=wrap;html=1;align=left;verticalAlign=top;fontSize=30;fillColor=#d5e8d4;strokeColor=#82b366;gradientColor=#97d077;" parent="1" vertex="1">
          <mxGeometry x="-80" y="-30" width="870" height="610" as="geometry" />
        </mxCell>
        <mxCell id="Mv-XawTWSqNudMJ0L80r-2" value="shebao-frame-common" style="rounded=0;whiteSpace=wrap;html=1;align=left;verticalAlign=top;fontSize=25;gradientColor=#b3b3b3;fillColor=#f5f5f5;strokeColor=#666666;" parent="1" vertex="1">
          <mxGeometry x="-40" y="30" width="790" height="530" as="geometry" />
        </mxCell>
        <mxCell id="Mv-XawTWSqNudMJ0L80r-8" value="shebao-common-apollo" style="rounded=0;whiteSpace=wrap;html=1;fillColor=#ffcd28;strokeColor=#d79b00;gradientColor=#ffa500;" parent="1" vertex="1">
          <mxGeometry x="-20" y="217.5" width="210" height="40" as="geometry" />
        </mxCell>
        <mxCell id="Mv-XawTWSqNudMJ0L80r-21" style="edgeStyle=orthogonalEdgeStyle;rounded=0;orthogonalLoop=1;jettySize=auto;html=1;fontSize=30;entryX=1;entryY=0.5;entryDx=0;entryDy=0;dashed=1;strokeWidth=1.5;startArrow=classic;startFill=1;endArrow=none;endFill=0;" parent="1" source="Mv-XawTWSqNudMJ0L80r-9" target="Mv-XawTWSqNudMJ0L80r-10" edge="1">
          <mxGeometry relative="1" as="geometry">
            <mxPoint x="220" y="165" as="targetPoint" />
          </mxGeometry>
        </mxCell>
        <mxCell id="Mv-XawTWSqNudMJ0L80r-9" value="shebao-common-auth" style="rounded=0;whiteSpace=wrap;html=1;fillColor=#e6d0de;strokeColor=#996185;gradientColor=#d5739d;" parent="1" vertex="1">
          <mxGeometry x="370" y="155" width="210" height="40" as="geometry" />
        </mxCell>
        <mxCell id="Mv-XawTWSqNudMJ0L80r-10" value="shebao-common-core" style="rounded=0;whiteSpace=wrap;html=1;fillColor=#e51400;strokeColor=#B20000;fontColor=#ffffff;" parent="1" vertex="1">
          <mxGeometry x="-20" y="155" width="210" height="40" as="geometry" />
        </mxCell>
        <mxCell id="Mv-XawTWSqNudMJ0L80r-11" value="shebao-common-bom" style="rounded=0;whiteSpace=wrap;html=1;fillColor=#f8cecc;strokeColor=#b85450;gradientColor=#ea6b66;" parent="1" vertex="1">
          <mxGeometry x="-20" y="92.5" width="210" height="40" as="geometry" />
        </mxCell>
        <mxCell id="Mv-XawTWSqNudMJ0L80r-12" value="shebao-common-redis" style="rounded=0;whiteSpace=wrap;html=1;fillColor=#ffcd28;strokeColor=#d79b00;gradientColor=#ffa500;" parent="1" vertex="1">
          <mxGeometry x="-20" y="340" width="210" height="40" as="geometry" />
        </mxCell>
        <mxCell id="Mv-XawTWSqNudMJ0L80r-13" value="shebao-common-datasource" style="rounded=0;whiteSpace=wrap;html=1;fillColor=#ffcd28;strokeColor=#d79b00;gradientColor=#ffa500;" parent="1" vertex="1">
          <mxGeometry x="-20" y="277.5" width="210" height="40" as="geometry" />
        </mxCell>
        <mxCell id="Mv-XawTWSqNudMJ0L80r-22" style="edgeStyle=orthogonalEdgeStyle;rounded=0;orthogonalLoop=1;jettySize=auto;html=1;fontSize=30;entryX=0.5;entryY=1;entryDx=0;entryDy=0;dashed=1;strokeWidth=1.5;startArrow=classic;startFill=1;endArrow=none;endFill=0;" parent="1" source="Mv-XawTWSqNudMJ0L80r-14" target="Mv-XawTWSqNudMJ0L80r-9" edge="1">
          <mxGeometry relative="1" as="geometry" />
        </mxCell>
        <mxCell id="Mv-XawTWSqNudMJ0L80r-24" style="rounded=0;orthogonalLoop=1;jettySize=auto;html=1;fontSize=30;entryX=0;entryY=0.5;entryDx=0;entryDy=0;dashed=1;strokeWidth=1.5;startArrow=classic;startFill=1;endArrow=none;endFill=0;edgeStyle=orthogonalEdgeStyle;curved=1;" parent="1" target="Mv-XawTWSqNudMJ0L80r-15" edge="1">
          <mxGeometry relative="1" as="geometry">
            <mxPoint x="190" y="170" as="sourcePoint" />
            <Array as="points">
              <mxPoint x="190" y="130" />
              <mxPoint x="865" y="130" />
            </Array>
          </mxGeometry>
        </mxCell>
        <mxCell id="tng2CFI7S1YM1ahf0Abw-3" style="edgeStyle=orthogonalEdgeStyle;rounded=0;orthogonalLoop=1;jettySize=auto;html=1;entryX=0;entryY=0.5;entryDx=0;entryDy=0;curved=1;dashed=1;" edge="1" parent="1" source="Mv-XawTWSqNudMJ0L80r-14" target="Mv-XawTWSqNudMJ0L80r-15">
          <mxGeometry relative="1" as="geometry" />
        </mxCell>
        <mxCell id="Mv-XawTWSqNudMJ0L80r-14" value="shebao-common-log" style="rounded=0;whiteSpace=wrap;html=1;fillColor=#dae8fc;strokeColor=#6c8ebf;gradientColor=#7ea6e0;" parent="1" vertex="1">
          <mxGeometry x="370" y="275" width="210" height="40" as="geometry" />
        </mxCell>
        <mxCell id="Mv-XawTWSqNudMJ0L80r-15" value="shebao-smart-salary-auth-api" style="rounded=0;whiteSpace=wrap;html=1;fillColor=#fff2cc;strokeColor=#d6b656;gradientColor=#ffd966;" parent="1" vertex="1">
          <mxGeometry x="865" y="140" width="210" height="40" as="geometry" />
        </mxCell>
        <mxCell id="Mv-XawTWSqNudMJ0L80r-25" value="..." style="rounded=0;whiteSpace=wrap;html=1;fillColor=#fff2cc;strokeColor=#d6b656;gradientColor=#ffd966;" parent="1" vertex="1">
          <mxGeometry x="865" y="200" width="210" height="40" as="geometry" />
        </mxCell>
        <mxCell id="Mv-XawTWSqNudMJ0L80r-26" value="shebao-smart-salary-xxx-api" style="rounded=0;whiteSpace=wrap;html=1;fillColor=#fff2cc;strokeColor=#d6b656;gradientColor=#ffd966;" parent="1" vertex="1">
          <mxGeometry x="865" y="257.5" width="210" height="40" as="geometry" />
        </mxCell>
        <mxCell id="Mv-XawTWSqNudMJ0L80r-32" value="shebao-frame-common包管理" style="whiteSpace=wrap;html=1;shape=partialRectangle;top=0;left=0;bottom=1;right=0;points=[[0,1],[1,1]];fillColor=none;align=center;verticalAlign=bottom;routingCenterY=0.5;snapToPoint=1;recursiveResize=0;autosize=1;treeFolding=1;treeMoving=1;newEdgeStyle={&quot;edgeStyle&quot;:&quot;entityRelationEdgeStyle&quot;,&quot;startArrow&quot;:&quot;none&quot;,&quot;endArrow&quot;:&quot;none&quot;,&quot;segment&quot;:10,&quot;curved&quot;:1};fontSize=12;fontStyle=1;fontColor=#FF3333;" parent="1" vertex="1">
          <mxGeometry x="-340" y="92.5" width="200" height="20" as="geometry" />
        </mxCell>
        <mxCell id="Mv-XawTWSqNudMJ0L80r-33" value="" style="startArrow=none;endArrow=none;segment=10;dashed=1;fontSize=12;dashPattern=1 4;" parent="1" source="Mv-XawTWSqNudMJ0L80r-11" target="Mv-XawTWSqNudMJ0L80r-32" edge="1">
          <mxGeometry relative="1" as="geometry">
            <mxPoint x="-160" y="112.5" as="sourcePoint" />
          </mxGeometry>
        </mxCell>
        <mxCell id="Mv-XawTWSqNudMJ0L80r-34" value="所有业务项目必须引入的核心包" style="whiteSpace=wrap;html=1;shape=partialRectangle;top=0;left=0;bottom=1;right=0;points=[[0,1],[1,1]];fillColor=none;align=center;verticalAlign=bottom;routingCenterY=0.5;snapToPoint=1;recursiveResize=0;autosize=1;treeFolding=1;treeMoving=1;newEdgeStyle={&quot;edgeStyle&quot;:&quot;entityRelationEdgeStyle&quot;,&quot;startArrow&quot;:&quot;none&quot;,&quot;endArrow&quot;:&quot;none&quot;,&quot;segment&quot;:10,&quot;curved&quot;:1};fontSize=12;fontColor=#FF3333;fontStyle=1" parent="1" vertex="1">
          <mxGeometry x="-340" y="155" width="200" height="20" as="geometry" />
        </mxCell>
        <mxCell id="Mv-XawTWSqNudMJ0L80r-35" value="" style="startArrow=none;endArrow=none;segment=10;dashed=1;fontSize=12;exitX=0;exitY=0.5;exitDx=0;exitDy=0;dashPattern=1 4;" parent="1" source="Mv-XawTWSqNudMJ0L80r-10" target="Mv-XawTWSqNudMJ0L80r-34" edge="1">
          <mxGeometry relative="1" as="geometry">
            <mxPoint x="-30" y="62" as="sourcePoint" />
          </mxGeometry>
        </mxCell>
        <mxCell id="Mv-XawTWSqNudMJ0L80r-40" style="rounded=0;orthogonalLoop=1;jettySize=auto;html=1;entryX=0;entryY=0.5;entryDx=0;entryDy=0;dashed=1;fontSize=12;fontColor=#000000;dashPattern=1 4;endArrow=none;endFill=0;" parent="1" source="Mv-XawTWSqNudMJ0L80r-38" target="Mv-XawTWSqNudMJ0L80r-13" edge="1">
          <mxGeometry relative="1" as="geometry" />
        </mxCell>
        <mxCell id="Mv-XawTWSqNudMJ0L80r-41" style="rounded=0;orthogonalLoop=1;jettySize=auto;html=1;entryX=0;entryY=0.5;entryDx=0;entryDy=0;dashed=1;fontSize=12;fontColor=#000000;dashPattern=1 4;endArrow=none;endFill=0;" parent="1" source="Mv-XawTWSqNudMJ0L80r-38" target="Mv-XawTWSqNudMJ0L80r-12" edge="1">
          <mxGeometry relative="1" as="geometry" />
        </mxCell>
        <mxCell id="Mv-XawTWSqNudMJ0L80r-38" value="业务项目按需引入的 starter" style="whiteSpace=wrap;html=1;shape=partialRectangle;top=0;left=0;bottom=1;right=0;points=[[0,1],[1,1]];fillColor=none;align=center;verticalAlign=bottom;routingCenterY=0.5;snapToPoint=1;recursiveResize=0;autosize=1;treeFolding=1;treeMoving=1;newEdgeStyle={&quot;edgeStyle&quot;:&quot;entityRelationEdgeStyle&quot;,&quot;startArrow&quot;:&quot;none&quot;,&quot;endArrow&quot;:&quot;none&quot;,&quot;segment&quot;:10,&quot;curved&quot;:1};fontSize=12;fontColor=#000000;" parent="1" vertex="1">
          <mxGeometry x="-340" y="217.5" width="180" height="20" as="geometry" />
        </mxCell>
        <mxCell id="Mv-XawTWSqNudMJ0L80r-39" value="" style="startArrow=none;endArrow=none;segment=10;dashed=1;fontSize=12;fontColor=#FF3333;exitX=0;exitY=0.5;exitDx=0;exitDy=0;dashPattern=1 4;" parent="1" source="Mv-XawTWSqNudMJ0L80r-8" target="Mv-XawTWSqNudMJ0L80r-38" edge="1">
          <mxGeometry relative="1" as="geometry">
            <mxPoint x="-40" y="170" as="sourcePoint" />
          </mxGeometry>
        </mxCell>
        <mxCell id="Mv-XawTWSqNudMJ0L80r-42" value="业务项目需引入的鉴权认证SDK" style="whiteSpace=wrap;html=1;shape=partialRectangle;top=0;left=0;bottom=1;right=0;points=[[0,1],[1,1]];fillColor=none;align=center;verticalAlign=bottom;routingCenterY=0.5;snapToPoint=1;recursiveResize=0;autosize=1;treeFolding=1;treeMoving=1;newEdgeStyle={&quot;edgeStyle&quot;:&quot;entityRelationEdgeStyle&quot;,&quot;startArrow&quot;:&quot;none&quot;,&quot;endArrow&quot;:&quot;none&quot;,&quot;segment&quot;:10,&quot;curved&quot;:1};fontSize=12;fontColor=#0000CC;" parent="1" vertex="1">
          <mxGeometry x="480" y="60" width="200" height="20" as="geometry" />
        </mxCell>
        <mxCell id="Mv-XawTWSqNudMJ0L80r-43" value="" style="startArrow=none;endArrow=none;segment=10;dashed=1;fontSize=12;fontColor=#000000;exitX=0.5;exitY=0;exitDx=0;exitDy=0;dashPattern=1 4;" parent="1" source="Mv-XawTWSqNudMJ0L80r-9" target="Mv-XawTWSqNudMJ0L80r-42" edge="1">
          <mxGeometry relative="1" as="geometry">
            <mxPoint x="520" y="-50" as="sourcePoint" />
          </mxGeometry>
        </mxCell>
        <mxCell id="Mv-XawTWSqNudMJ0L80r-44" value="业务项目需引入的AOP操作日志" style="whiteSpace=wrap;html=1;shape=partialRectangle;top=0;left=0;bottom=1;right=0;points=[[0,1],[1,1]];fillColor=none;align=center;verticalAlign=bottom;routingCenterY=0.5;snapToPoint=1;recursiveResize=0;autosize=1;treeFolding=1;treeMoving=1;newEdgeStyle={&quot;edgeStyle&quot;:&quot;entityRelationEdgeStyle&quot;,&quot;startArrow&quot;:&quot;none&quot;,&quot;endArrow&quot;:&quot;none&quot;,&quot;segment&quot;:10,&quot;curved&quot;:1};fontSize=12;fontColor=#0000CC;direction=west;" parent="1" vertex="1">
          <mxGeometry x="470" y="470" width="200" height="20" as="geometry" />
        </mxCell>
        <mxCell id="Mv-XawTWSqNudMJ0L80r-45" value="" style="startArrow=none;endArrow=none;segment=10;dashed=1;fontSize=12;fontColor=#000000;exitX=0.5;exitY=1;exitDx=0;exitDy=0;entryX=1;entryY=1;entryDx=0;entryDy=0;dashPattern=1 4;" parent="1" source="Mv-XawTWSqNudMJ0L80r-14" target="Mv-XawTWSqNudMJ0L80r-44" edge="1">
          <mxGeometry relative="1" as="geometry">
            <mxPoint x="470" y="660" as="sourcePoint" />
            <mxPoint x="270" y="610" as="targetPoint" />
          </mxGeometry>
        </mxCell>
        <mxCell id="Mv-XawTWSqNudMJ0L80r-46" value="通用权限系统、认证系统feign api包" style="whiteSpace=wrap;html=1;shape=partialRectangle;top=0;left=0;bottom=1;right=0;points=[[0,1],[1,1]];fillColor=none;align=center;verticalAlign=bottom;routingCenterY=0.5;snapToPoint=1;recursiveResize=0;autosize=1;treeFolding=1;treeMoving=1;newEdgeStyle={&quot;edgeStyle&quot;:&quot;entityRelationEdgeStyle&quot;,&quot;startArrow&quot;:&quot;none&quot;,&quot;endArrow&quot;:&quot;none&quot;,&quot;segment&quot;:10,&quot;curved&quot;:1};fontSize=12;fontColor=#CC0066;" parent="1" vertex="1">
          <mxGeometry x="1160" y="140" width="220" height="20" as="geometry" />
        </mxCell>
        <mxCell id="Mv-XawTWSqNudMJ0L80r-47" value="" style="edgeStyle=entityRelationEdgeStyle;startArrow=none;endArrow=none;segment=10;curved=1;dashed=1;fontSize=12;fontColor=#0000CC;exitX=1;exitY=0.5;exitDx=0;exitDy=0;" parent="1" source="Mv-XawTWSqNudMJ0L80r-15" target="Mv-XawTWSqNudMJ0L80r-46" edge="1">
          <mxGeometry relative="1" as="geometry">
            <mxPoint x="1130" y="190" as="sourcePoint" />
          </mxGeometry>
        </mxCell>
      </root>
    </mxGraphModel>
  </diagram>
</mxfile>
